<svg width="31" height="43" viewBox="0 0 31 43" fill="none" xmlns="http://www.w3.org/2000/svg">
<path d="M30.0842 38.7825L27.9673 14.7989C27.8083 12.9923 26.3198 11.6289 24.5054 11.6289C24.0885 11.6289 23.7493 11.9678 23.7493 12.3849V16.1241C23.7493 16.4943 23.4695 16.8175 23.1002 16.841C22.6953 16.8671 22.359 16.5464 22.359 16.1475V8.06612C22.359 4.08884 19.1238 0.853668 15.1465 0.853668C11.1692 0.853668 7.93405 4.08884 7.93405 8.06612V11.6289H5.78769C3.97327 11.6289 2.48472 12.9923 2.3257 14.7989L0.208883 38.7825C0.0307437 40.8094 1.62904 42.5642 3.67174 42.5642H26.6213C28.6643 42.5642 30.2623 40.8091 30.0842 38.7825ZM20.9686 11.6289H11.4708C11.0537 11.6289 10.7148 11.9678 10.7148 12.3849V16.1241C10.7148 16.4943 10.435 16.8175 10.0656 16.841C9.6607 16.8671 9.3244 16.5464 9.3244 16.1475V8.06612C9.3244 4.85615 11.9365 2.24402 15.1465 2.24402C18.3565 2.24402 20.9686 4.85615 20.9686 8.06612V11.6289Z" fill="#1E6FB9"/>
<path d="M8.27441 28.4672H22.6334" stroke="white" stroke-width="2" stroke-linecap="round"/>
<path d="M7.92712 35.0944H22.2862" stroke="white" stroke-width="2" stroke-linecap="round"/>
</svg>
